<?xml version="1.0" encoding="UTF-8"?>
<svg id="Layer_1" data-name="Layer 1" xmlns="http://www.w3.org/2000/svg" viewBox="0 0 27.89 26.88">
  <defs>
    <style>
      .cls-1 {
        fill: none;
        stroke: #f9fafb;
        stroke-width: 2px;
      }

      .cls-2 {
        fill: #f9fafb;
      }
    </style>
  </defs>
  <path class="cls-1" d="m17.73,5.01c6.83,3.95,6.83,13.81,0,17.75-6.83,3.95-15.38-.99-15.38-8.88S10.9,1.07,17.73,5.01Z"/>
  <path class="cls-2" d="m3.71,5.18C2.98,2.89,4.29.62,6.64.1c2.35-.52,4.84.92,5.56,3.21l1.96,11.27c.73,2.29.57,3.12-1.78,3.63-2.35.52-3.16-.67-3.89-2.96L3.71,5.18Z"/>
  <path class="cls-2" d="m24.43,14.4c2.4.7,3.9,3.08,3.35,5.32-.54,2.24-2.93,3.49-5.32,2.79l-10.69-4.65c-2.4-.7-3.48-1.42-2.94-3.66.54-2.24,1.22-2.48,3.61-1.79l5.99.99,5.99.99Z"/>
  <path class="cls-2" d="m7.71,25.76c-1.67,1.59-4.48,1.48-6.28-.24-1.8-1.73-1.91-4.41-.24-6.01l8.6-5.47c1.67-1.59,2.26-1.49,4.07.24,1.8,1.73.86,1.21-.8,2.8l-5.33,8.68Z"/>
</svg>